<?xml version="1.0" standalone="no"?>
<!DOCTYPE svg PUBLIC "-//W3C//DTD SVG 20010904//EN"
 "http://www.w3.org/TR/2001/REC-SVG-20010904/DTD/svg10.dtd">
<svg version="1.0" xmlns="http://www.w3.org/2000/svg"
 width="180.000000pt" height="151.000000pt" viewBox="0 0 180.000000 151.000000"
 preserveAspectRatio="xMidYMid meet">

<g transform="translate(0.000000,151.000000) scale(0.100000,-0.100000)"
fill="#000000" stroke="none">
<path d="M90 1383 c-23 -30 -21 -65 7 -95 15 -17 66 -18 800 -18 770 0 783 0
803 20 11 11 20 33 20 50 0 17 -9 39 -20 50 -20 20 -33 20 -804 20 l-785 0
-21 -27z"/>
<path d="M90 783 c-23 -30 -21 -65 7 -95 15 -17 66 -18 800 -18 770 0 783 0
803 20 11 11 20 33 20 50 0 17 -9 39 -20 50 -20 20 -33 20 -804 20 l-785 0
-21 -27z"/>
<path d="M90 183 c-23 -30 -21 -65 7 -95 15 -17 66 -18 800 -18 770 0 783 0
803 20 11 11 20 33 20 50 0 17 -9 39 -20 50 -20 20 -33 20 -804 20 l-785 0
-21 -27z"/>
</g>
</svg>
